<?xml version="1.0" encoding="iso-8859-1"?>
<!-- Generator: Adobe Illustrator 19.0.0, SVG Export Plug-In . SVG Version: 6.00 Build 0)  -->
<svg version="1.1" id="Layer_1" xmlns="http://www.w3.org/2000/svg" xmlns:xlink="http://www.w3.org/1999/xlink" x="0px" y="0px"
	 viewBox="0 0 512 512" style="enable-background:new 0 0 512 512;" xml:space="preserve">
<path style="fill:#F75534;" d="M243.759,32.806h-76.415c-5.173,0-9.366,5.412-9.366,12.086s4.193,12.086,9.366,12.086h76.415V32.806
	z"/>
<path style="fill:#BD391E;" d="M177.379,44.893c0-6.675,4.193-12.086,9.366-12.086h-19.402c-5.173,0-9.366,5.412-9.366,12.086
	c0,6.674,4.193,12.085,9.366,12.085h19.402C181.573,56.978,177.379,51.567,177.379,44.893z"/>
<g>
	<path style="fill:#F75534;" d="M352.935,22.376c0,6.683-4.193,12.095-9.366,12.095h-76.412V10.293h76.412
		C348.742,10.293,352.935,15.705,352.935,22.376z"/>
	<path style="fill:#F75534;" d="M352.935,69.06c0,6.683-4.193,12.095-9.366,12.095h-76.412V56.977h76.412
		C348.742,56.977,352.935,62.389,352.935,69.06z"/>
</g>
<path style="fill:#F7EDE3;" d="M348.721,500.377H163.279c-8.323,0-15.068-6.747-15.068-15.068V299.867
	c0-8.323,6.747-15.068,15.068-15.068h185.442c8.323,0,15.068,6.747,15.068,15.068v185.442
	C363.79,493.631,357.043,500.377,348.721,500.377z"/>
<path style="fill:#DBD2CA;" d="M167.678,485.308V299.866c0-8.323,6.746-15.068,15.068-15.068h-19.467
	c-8.323,0-15.068,6.746-15.068,15.068v185.442c0,8.323,6.746,15.068,15.068,15.068h19.467
	C174.424,500.377,167.678,493.631,167.678,485.308z"/>
<path style="fill:#F75534;" d="M282.021,512H229.98c-2.298,0-4.16-1.863-4.16-4.16v-20.783c0-2.298,1.863-4.16,4.16-4.16h52.041
	c2.298,0,4.161,1.863,4.161,4.16v20.783C286.181,510.137,284.319,512,282.021,512z"/>
<g>
	<path style="fill:#BD391E;" d="M245.221,507.84v-20.783c0-2.298,1.863-4.16,4.161-4.16H229.98c-2.298,0-4.161,1.863-4.161,4.16
		v20.783c0,2.298,1.863,4.16,4.161,4.16h19.402C247.084,512,245.221,510.137,245.221,507.84z"/>
	<rect x="267.16" y="10.293" style="fill:#BD391E;" width="23.315" height="24.179"/>
	<rect x="267.16" y="56.978" style="fill:#BD391E;" width="23.315" height="24.179"/>
</g>
<path style="fill:#B36E44;" d="M271.064,444.991h-30.129V4.311c0-2.381,1.93-4.311,4.311-4.311h21.505
	c2.381,0,4.311,1.93,4.311,4.311v440.679H271.064z"/>
<path style="fill:#8C5635;" d="M258.515,444.991h-17.579V4.311c0-2.381,1.93-4.311,4.311-4.311h13.268V444.991z"/>
<rect x="240.933" y="92.202" style="fill:#F7EDE3;" width="30.129" height="26.363"/>
<rect x="240.933" y="92.202" style="fill:#DBD2CA;" width="19.402" height="26.363"/>
<path style="fill:#B36E44;" d="M299.668,456.174h-87.338c-1.834,0-3.321-1.487-3.321-3.321v-15.726c0-1.834,1.487-3.321,3.321-3.321
	h87.338c1.834,0,3.321,1.487,3.321,3.321v15.726C302.989,454.687,301.503,456.174,299.668,456.174z"/>
<path style="fill:#8C5635;" d="M228.413,452.854v-15.726c0-1.834,1.487-3.321,3.321-3.321h-19.402c-1.834,0-3.321,1.487-3.321,3.321
	v15.726c0,1.834,1.487,3.321,3.321,3.321h19.402C229.9,456.174,228.413,454.688,228.413,452.854z"/>
<g>
</g>
<g>
</g>
<g>
</g>
<g>
</g>
<g>
</g>
<g>
</g>
<g>
</g>
<g>
</g>
<g>
</g>
<g>
</g>
<g>
</g>
<g>
</g>
<g>
</g>
<g>
</g>
<g>
</g>
</svg>
