<?xml version="1.0" encoding="UTF-8" standalone="no"?>
<svg
   xmlns:dc="http://purl.org/dc/elements/1.1/"
   xmlns:cc="http://creativecommons.org/ns#"
   xmlns:rdf="http://www.w3.org/1999/02/22-rdf-syntax-ns#"
   xmlns:svg="http://www.w3.org/2000/svg"
   xmlns="http://www.w3.org/2000/svg"
   xmlns:sodipodi="http://sodipodi.sourceforge.net/DTD/sodipodi-0.dtd"
   xmlns:inkscape="http://www.inkscape.org/namespaces/inkscape"
   width="11.90767mm"
   height="11.90767mm"
   viewBox="0 0 11.90767 11.90767"
   version="1.1"
   id="svg1073"
   sodipodi:docname="uul.svg"
   inkscape:version="1.0.1 (3bc2e813f5, 2020-09-07)">
  <defs
     id="defs1067" />
  <sodipodi:namedview
     id="base"
     pagecolor="#ffffff"
     bordercolor="#666666"
     borderopacity="1.0"
     inkscape:pageopacity="0.0"
     inkscape:pageshadow="2"
     inkscape:zoom="22.4"
     inkscape:cx="22.632442"
     inkscape:cy="25.471479"
     inkscape:document-units="mm"
     inkscape:current-layer="layer1"
     inkscape:document-rotation="0"
     showgrid="true"
     fit-margin-top="0"
     fit-margin-left="0"
     fit-margin-right="0"
     fit-margin-bottom="0"
     inkscape:window-width="2391"
     inkscape:window-height="1573"
     inkscape:window-x="475"
     inkscape:window-y="415"
     inkscape:window-maximized="0">
    <inkscape:grid
       type="xygrid"
       id="grid1651"
       originx="-146.71075"
       originy="-209.68158" />
  </sodipodi:namedview>
  <metadata
     id="metadata1070">
    <rdf:RDF>
      <cc:Work
         rdf:about="">
        <dc:format>image/svg+xml</dc:format>
        <dc:type
           rdf:resource="http://purl.org/dc/dcmitype/StillImage" />
        <dc:title></dc:title>
      </cc:Work>
    </rdf:RDF>
  </metadata>
  <g
     inkscape:label="Layer 1"
     inkscape:groupmode="layer"
     id="layer1"
     transform="translate(-146.71076,-209.68157)">
    <path
       style="fill:none;stroke:#3b8dcb;stroke-width:0.266;stroke-linecap:square;stroke-linejoin:miter;stroke-miterlimit:4;stroke-dasharray:none;stroke-opacity:1"
       d="m 154.63007,210.72171 v -0.30238 h 0.60476 v 0.90715 h -1.20952 v -1.51191 h 1.81428 v 2.11667 h -4.23333 v -2.11667 h 1.81429 v 1.51191 h -1.20953 v -0.90715 h 0.60476 v 0.30238"
       id="path1019"
       sodipodi:nodetypes="cccccccccccccccc" />
    <path
       style="fill:none;stroke:#3b8dcb;stroke-width:0.265999;stroke-linecap:square;stroke-linejoin:miter;stroke-miterlimit:4;stroke-dasharray:none;stroke-opacity:1"
       d="m 149.86757,210.72171 v -0.30238 h 0.60476 v 0.90715 h -1.20952 v -1.51191 h 1.81428 v 2.11667 h -4.23333 v -2.11667 h 1.81429 v 1.51191 h -1.20953 v -0.90715 h 0.60476 v 0.30238"
       id="path1019-5"
       sodipodi:nodetypes="cccccccccccccccc" />
    <path
       style="fill:none;stroke:#3b8dcb;stroke-width:0.265999;stroke-linecap:square;stroke-linejoin:miter;stroke-miterlimit:4;stroke-dasharray:none;stroke-opacity:1"
       d="m 147.7509,213.66993 h -0.30238 v -0.60476 h 0.90715 v 1.20952 h -1.51191 v -1.81428 h 2.11667 v 4.23333 h -2.11667 v -1.81429 h 1.51191 v 1.20953 h -0.90715 v -0.60476 h 0.30238"
       id="path1668"
       sodipodi:nodetypes="cccccccccccccccc" />
    <path
       style="fill:none;stroke:#3b8dcb;stroke-width:0.265999;stroke-linecap:square;stroke-linejoin:miter;stroke-miterlimit:4;stroke-dasharray:none;stroke-opacity:1"
       d="m 147.7509,218.43243 h -0.30238 v -0.60476 h 0.90715 v 1.20952 h -1.51191 v -1.81428 h 2.11667 v 4.23333 h -2.11667 v -1.81429 h 1.51191 v 1.20953 h -0.90715 v -0.60476 h 0.30238"
       id="path1681"
       sodipodi:nodetypes="cccccccccccccccc" />
    <path
       style="fill:none;stroke:#3b8dcb;stroke-width:0.266;stroke-linecap:square;stroke-linejoin:miter;stroke-miterlimit:4;stroke-dasharray:none;stroke-opacity:1"
       d="m 152.5134,220.24671 v -0.30238 h 0.60476 v 0.90715 h -1.20952 v -1.51191 h 1.81428 l 1e-5,2.11667 h -4.23334 v -2.11667 h 1.81429 v 1.51191 h -1.20953 v -0.90715 h 0.60476 v 0.30238"
       id="path1683"
       sodipodi:nodetypes="cccccccccccccccc" />
    <path
       style="fill:none;stroke:#3b8dcb;stroke-width:0.266;stroke-linecap:square;stroke-linejoin:miter;stroke-miterlimit:4;stroke-dasharray:none;stroke-opacity:1"
       d="m 157.2759,220.24671 v -0.30238 h 0.60476 v 0.90715 h -1.20952 v -1.51191 h 1.81428 l 1e-5,2.11667 h -4.23334 v -2.11667 h 1.81429 v 1.51191 h -1.20953 v -0.90715 h 0.60476 v 0.30238"
       id="path1685"
       sodipodi:nodetypes="cccccccccccccccc" />
    <path
       style="fill:none;stroke:#3b8dcb;stroke-width:0.266;stroke-linecap:square;stroke-linejoin:miter;stroke-miterlimit:4;stroke-dasharray:none;stroke-opacity:1"
       d="m 157.2759,215.78659 h -0.30238 v -0.60476 h 0.90715 v 1.20952 h -1.51191 v -1.81428 h 2.11667 v 4.23334 l -2.11667,-1e-5 v -1.81429 h 1.51191 v 1.20953 h -0.90715 v -0.60476 h 0.30238"
       id="path1687"
       sodipodi:nodetypes="cccccccccccccccc" />
    <path
       style="fill:none;stroke:#3b8dcb;stroke-width:0.266;stroke-linecap:square;stroke-linejoin:miter;stroke-miterlimit:4;stroke-dasharray:none;stroke-opacity:1"
       d="m 157.2759,211.02409 h -0.30238 v -0.60476 h 0.90715 v 1.20952 h -1.51191 v -1.81428 h 2.11667 v 4.23334 l -2.11667,-1e-5 v -1.81429 h 1.51191 v 1.20953 h -0.90715 v -0.60476 h 0.30238"
       id="path1689"
       sodipodi:nodetypes="cccccccccccccccc" />
  </g>
</svg>
