<?xml version="1.0" encoding="UTF-8"?>
<svg width="11.908mm" height="11.908mm" version="1.1" viewBox="0 0 11.908 11.908" xmlns="http://www.w3.org/2000/svg" xmlns:cc="http://creativecommons.org/ns#" xmlns:dc="http://purl.org/dc/elements/1.1/" xmlns:rdf="http://www.w3.org/1999/02/22-rdf-syntax-ns#">
 <metadata>
  <rdf:RDF>
   <cc:Work rdf:about="">
    <dc:format>image/svg+xml</dc:format>
    <dc:type rdf:resource="http://purl.org/dc/dcmitype/StillImage"/>
    <dc:title/>
   </cc:Work>
  </rdf:RDF>
 </metadata>
 <g transform="translate(-146.71 -209.68)" fill="none" stroke="#3b8dcb" stroke-linecap="square">
  <path d="m154.63 210.72v-0.30238h0.60476v0.90715h-1.2095v-1.5119h1.8143v2.1167h-4.2333v-2.1167h1.8143v1.5119h-1.2095v-0.90715h0.60476v0.30238" stroke-width=".266"/>
  <g stroke-width=".266">
   <path d="m149.87 210.72v-0.30238h0.60476v0.90715h-1.2095v-1.5119h1.8143v2.1167h-4.2333v-2.1167h1.8143v1.5119h-1.2095v-0.90715h0.60476v0.30238"/>
   <path d="m147.75 213.67h-0.30238v-0.60476h0.90715v1.2095h-1.5119v-1.8143h2.1167v4.2333h-2.1167v-1.8143h1.5119v1.2095h-0.90715v-0.60476h0.30238"/>
   <path d="m147.75 218.43h-0.30238v-0.60476h0.90715v1.2095h-1.5119v-1.8143h2.1167v4.2333h-2.1167v-1.8143h1.5119v1.2095h-0.90715v-0.60476h0.30238"/>
  </g>
  <g stroke-width=".266">
   <path d="m152.51 220.25v-0.30238h0.60476v0.90715h-1.2095v-1.5119h1.8143l1e-5 2.1167h-4.2333v-2.1167h1.8143v1.5119h-1.2095v-0.90715h0.60476v0.30238"/>
   <path d="m157.28 220.25v-0.30238h0.60476v0.90715h-1.2095v-1.5119h1.8143l1e-5 2.1167h-4.2333v-2.1167h1.8143v1.5119h-1.2095v-0.90715h0.60476v0.30238"/>
   <path d="m157.28 215.79h-0.30238v-0.60476h0.90715v1.2095h-1.5119v-1.8143h2.1167v4.2333l-2.1167-1e-5v-1.8143h1.5119v1.2095h-0.90715v-0.60476h0.30238"/>
   <path d="m157.28 211.02h-0.30238v-0.60476h0.90715v1.2095h-1.5119v-1.8143h2.1167v4.2333l-2.1167-1e-5v-1.8143h1.5119v1.2095h-0.90715v-0.60476h0.30238"/>
  </g>
 </g>
</svg>
