<?xml version="1.0" encoding="UTF-8"?>
<svg width="9.825mm" height="9.825mm" version="1.1" viewBox="0 0 9.825 9.825" xmlns="http://www.w3.org/2000/svg" xmlns:cc="http://creativecommons.org/ns#" xmlns:dc="http://purl.org/dc/elements/1.1/" xmlns:rdf="http://www.w3.org/1999/02/22-rdf-syntax-ns#">
 <metadata>
  <rdf:RDF>
   <cc:Work rdf:about="">
    <dc:format>image/svg+xml</dc:format>
    <dc:type rdf:resource="http://purl.org/dc/dcmitype/StillImage"/>
    <dc:title/>
   </cc:Work>
  </rdf:RDF>
 </metadata>
 <g transform="translate(-148.81 -209.93)" fill="none" stroke="#3b8dcb" stroke-linecap="square" stroke-width=".3">
  <path d="m154.63 210.99v-0.30238h0.60476v0.90715h-1.2095v-1.5119h1.8143v2.1167h-4.2333v-2.1167h1.8143v1.5119h-1.2095v-0.90715h0.60476v0.30238"/>
  <path d="m150.55 211.59h-0.98274v-0.90715h0.98274zm-1.5875 0.60476v-2.1167h2.1167v2.1167z" image-rendering="auto"/>
  <path d="m149.87 213.93h-0.30238v-0.60476h0.90715v1.2095h-1.5119v-1.8143h2.1167v4.2333h-2.1167v-1.8143h1.5119v1.2095h-0.90715v-0.60476h0.30238"/>
  <path d="m157.58 213.93h0.30238v-0.60476h-0.90715v1.2095h1.5119v-1.8143h-2.1167v4.2333l2.1167-1e-5v-1.8143h-1.5119v1.2095h0.90715v-0.60476h-0.30238"/>
  <path d="m152.82 218.7v0.30238h-0.60476v-0.90715h1.2095v1.5119h-1.8143v-2.1167h4.2333l-1e-5 2.1167h-1.8143v-1.5119h1.2095v0.90715h-0.60476v-0.30238"/>
  <path d="m150.55 219h-0.98274v-0.90715h0.98274zm-1.5875 0.60476v-2.1167h2.1167v2.1167z" image-rendering="auto"/>
  <path d="m157.96 219h-0.98274v-0.90715h0.98274zm-1.5875 0.60476v-2.1167h2.1167v2.1167z" image-rendering="auto"/>
  <path d="m157.96 211.59h-0.98274v-0.90715h0.98274zm-1.5875 0.60476v-2.1167h2.1167v2.1167z" image-rendering="auto"/>
 </g>
</svg>
